<svg xmlns="http://www.w3.org/2000/svg" width="60.03" height="69.33" viewBox="0 0 60.03 69.33"><defs><style>.a{fill:none;}.b{fill:#f0f0f0;}</style></defs><path class="a" d="M0,0H24V24H0Z"/><path class="b" d="M40.51,14.1c3.9,0,7.1-2.84,7.1-6.312S44.414,1.48,40.51,1.48s-7.1,2.84-7.1,6.312S36.606,14.1,40.51,14.1ZM27.733,57.969l3.549-13.886L38.736,50.4V69.33h7.1V45.661L38.381,39.35l2.129-9.467a27.456,27.456,0,0,0,19.52,7.89V31.46c-6.743,0-12.422-3.156-15.261-7.574L41.22,18.837a7.524,7.524,0,0,0-6.033-3.156c-1.065,0-1.775.316-2.839.316L13.892,22.94V37.772h7.1V27.042l6.388-2.209L21.7,50.4,4.31,47.239,2.89,53.551Z"/></svg>