<svg xmlns="http://www.w3.org/2000/svg" width="74" height="83" viewBox="0 0 74 83"><defs><style>.a{fill:none;}.b{fill:#f0f0f0;}</style></defs><path class="a" d="M0,0H74V83H0Z"/><path class="b" d="M29.708,2C16.048,2,5,13.451,5,27.608,5,46.815,29.708,75.167,29.708,75.167S54.417,46.815,54.417,27.608C54.417,13.451,43.369,2,29.708,2Zm0,34.754a8.993,8.993,0,0,1-8.824-9.146,8.993,8.993,0,0,1,8.824-9.146,8.993,8.993,0,0,1,8.824,9.146A8.993,8.993,0,0,1,29.708,36.754Z" transform="translate(7.292 2.917)"/></svg>